<svg xmlns="http://www.w3.org/2000/svg" width="32" height="32" viewBox="0 0 32 32" fill="none">
  <path d="M15.9974 12.9076V13.916C19.3081 15.2679 22.5876 17.0373 25.5664 19.1987C27.5514 20.6387 31.1523 23.5691 31.8671 26.2178C32.9684 30.2992 26.9143 29.7808 24.97 29.5032C21.9133 29.0669 18.8944 27.9771 15.9974 26.8235V32C13.3765 30.9681 10.7811 29.5973 8.35753 28.045C5.96932 26.5156 0.909178 22.8101 0.128194 19.6982C-0.891261 15.639 4.9841 16.1365 6.96789 16.4121C10.0611 16.841 13.062 17.9529 15.9974 19.0924L15.9881 18.3644C12.6019 16.874 9.25456 15.1261 6.19677 12.8686C4.31046 11.4756 0.538414 8.35294 0.0574069 5.72908C-0.588964 2.20303 4.39807 2.44571 6.22056 2.62185C9.55917 2.94521 12.834 4.20235 15.9979 5.37748V0C18.6171 1.03261 21.2153 2.40336 23.6378 3.95496C26.0805 5.51933 30.5773 8.82219 31.7035 11.8198C33.461 16.4955 26.7733 15.8548 24.6224 15.52C21.6679 15.0608 18.8074 14.004 15.9979 12.9076H15.9974Z" fill="black"/>
</svg>